<svg width="25" height="26" viewBox="0 0 25 26" fill="none" xmlns="http://www.w3.org/2000/svg">
<path d="M5.75 9.79199V1.91699H19.25V9.79199" stroke="#1A7AB8" stroke-width="2" stroke-linecap="round" stroke-linejoin="round"/>
<path d="M5.75 19.917H3.5C2.90326 19.917 2.33097 19.6799 1.90901 19.258C1.48705 18.836 1.25 18.2637 1.25 17.667V12.042C1.25 11.4453 1.48705 10.873 1.90901 10.451C2.33097 10.029 2.90326 9.79199 3.5 9.79199H21.5C22.0967 9.79199 22.669 10.029 23.091 10.451C23.5129 10.873 23.75 11.4453 23.75 12.042V17.667C23.75 18.2637 23.5129 18.836 23.091 19.258C22.669 19.6799 22.0967 19.917 21.5 19.917H19.25" stroke="#1A7AB8" stroke-width="2" stroke-linecap="round" stroke-linejoin="round"/>
<path d="M19.25 15.417H5.75V24.417H19.25V15.417Z" stroke="#1A7AB8" stroke-width="2" stroke-linecap="round" stroke-linejoin="round"/>
</svg>
