<svg width="25" height="26" viewBox="0 0 25 26" fill="none" xmlns="http://www.w3.org/2000/svg">
<path d="M23.7501 18.7021V22.0771C23.7514 22.3904 23.6872 22.7005 23.5617 22.9876C23.4362 23.2747 23.2521 23.5324 23.0212 23.7442C22.7903 23.956 22.5178 24.1173 22.221 24.2176C21.9241 24.318 21.6097 24.3553 21.2976 24.3271C17.8358 23.9509 14.5105 22.768 11.5889 20.8734C8.87066 19.1461 6.56611 16.8415 4.83886 14.1234C2.93758 11.1885 1.75438 7.84697 1.38511 4.3696C1.35699 4.0585 1.39397 3.74496 1.49367 3.44893C1.59337 3.1529 1.75363 2.88088 1.96422 2.65018C2.17481 2.41947 2.43114 2.23515 2.71687 2.10894C3.00261 1.98273 3.31149 1.9174 3.62386 1.9171H6.99886C7.54483 1.91173 8.07412 2.10506 8.48809 2.46108C8.90206 2.81709 9.17244 3.31148 9.24886 3.8521C9.39131 4.93218 9.65549 5.99267 10.0364 7.01335C10.1877 7.41602 10.2205 7.85363 10.1308 8.27434C10.041 8.69505 9.83258 9.08123 9.53011 9.3871L8.10136 10.8159C9.70286 13.6323 12.0349 15.9644 14.8514 17.5659L16.2801 16.1371C16.586 15.8346 16.9722 15.6262 17.3929 15.5365C17.8136 15.4467 18.2512 15.4795 18.6539 15.6309C19.6745 16.0117 20.735 16.2759 21.8151 16.4184C22.3616 16.4954 22.8607 16.7707 23.2175 17.1918C23.5742 17.6129 23.7638 18.1504 23.7501 18.7021Z" stroke="#1A7AB8" stroke-width="2" stroke-linecap="round" stroke-linejoin="round"/>
</svg>
